# File created by Blade
# Date/Time:  Wed Jan 21 17:34:04 2015
# Frame Rate: 120.000 fps
#------------------------------------------------------
:FULLY-SPECIFIED
:DEGREES
255
root 21.662724 16.956024 -16.424533 -165.212291 -2.668789 -180.732665
Spine 72.013369 6.063728 -1.909370
Head -11.813314 -0.200577 10.568709
LeftShoulder 24.102680 -40.586183 -3.105008
LeftArm 11.953036 5.684426 -55.694522
LeftForeArm -19.723658 0.000000 14.208828
LeftHand -0.693108 -0.000000 17.096606
LeftHandThumb1 -26.253704 0.000000 33.147579
RightShoulder 11.212011 -0.283404 -5.392714
RightArm 51.083175 3.789639 34.656422
RightForeArm -38.823217 0.000000 45.647986
RightHand -10.810147 0.000000 -16.351740
RightHandThumb1 -24.326973 -0.000000 -32.862282
LeftUpLeg -91.969726 -0.776752 -11.471206
LeftLeg 127.913577 -0.000000 -0.000000
LeftFoot -56.900566 21.676847 -19.621451
LeftToeBase 11.910107 -0.000000 -0.000000
RightUpLeg -93.123179 3.074525 11.607530
RightLeg 129.436150 -0.000000 -0.000000
RightFoot -56.700500 -28.180439 27.290937
RightToeBase 12.227784 -0.000000 -0.000000
256
root 21.656899 16.731162 -16.498804 -165.659833 -2.726048 -180.773706
Spine 72.130150 6.076267 -1.932474
Head -11.450903 -0.264661 10.603480
LeftShoulder 23.845252 -40.362131 -2.990172
LeftArm 11.604766 5.190430 -55.942888
LeftForeArm -19.663440 -0.000000 14.301165
LeftHand -0.602116 -0.000000 17.175510
LeftHandThumb1 -26.253704 0.000000 33.147579
RightShoulder 11.143789 -0.020016 -5.340223
RightArm 50.793138 3.317410 34.802895
RightForeArm -38.230177 -0.000000 45.861001
RightHand -10.956729 0.000000 -15.407230
RightHandThumb1 -24.326973 -0.000000 -32.862282
LeftUpLeg -92.044555 -0.778053 -11.695086
LeftLeg 128.899214 -0.000000 -0.000000
LeftFoot -56.927627 21.750823 -19.676162
LeftToeBase 11.535038 -0.000000 -0.000000
RightUpLeg -93.232360 3.042216 11.843321
RightLeg 130.413080 -0.000000 -0.000000
RightFoot -56.784705 -28.511553 27.439079
RightToeBase 12.184611 -0.000000 -0.000000
257
root 21.651923 16.514533 -16.568624 -166.043593 -2.772286 -180.804638
Spine 72.211107 6.119052 -1.918740
Head -11.120483 -0.353074 10.632237
LeftShoulder 23.644596 -40.255483 -2.921373
LeftArm 11.136414 4.568332 -56.248202
LeftForeArm -19.550978 -0.000000 14.375945
LeftHand -0.491455 0.000000 16.643969
LeftHandThumb1 -26.253704 0.000000 33.147579
RightShoulder 11.040754 0.232714 -5.242317
RightArm 50.508908 2.811324 34.985687
RightForeArm -38.000177 -0.000000 46.051138
RightHand -10.971853 -0.000000 -15.126756
RightHandThumb1 -24.326973 -0.000000 -32.862282
LeftUpLeg -92.191003 -0.756969 -11.948565
LeftLeg 129.853410 -0.000000 -0.000000
LeftFoot -56.914590 21.865959 -19.747304
LeftToeBase 11.165380 -0.000000 -0.000000
RightUpLeg -93.382395 3.054618 12.067203
RightLeg 131.348330 -0.000000 -0.000000
RightFoot -56.837981 -28.855005 27.475119
RightToeBase 12.042949 -0.000000 -0.000000
258
root 21.644619 16.306778 -16.636881 -166.430367 -2.834751 -180.861700
Spine 72.324370 6.125950 -1.929067
Head -10.814570 -0.388054 10.621490
LeftShoulder 23.407141 -40.054142 -2.831142
LeftArm 10.675927 3.956130 -56.471014
LeftForeArm -19.428160 0.000000 14.685085
LeftHand -0.461682 -0.000000 16.048647
LeftHandThumb1 -26.253704 0.000000 33.147579
RightShoulder 10.922927 0.454040 -5.194988
RightArm 50.256590 2.272065 35.297908
RightForeArm -38.569774 -0.000000 46.255182
RightHand -10.787433 0.000000 -15.408722
RightHandThumb1 -24.326973 -0.000000 -32.862282
LeftUpLeg -92.285955 -0.775839 -12.211733
LeftLeg 130.753059 -0.000000 -0.000000
LeftFoot -56.950019 21.897786 -19.863801
LeftToeBase 10.782378 -0.000000 -0.000000
RightUpLeg -93.538761 3.042303 12.277467
RightLeg 132.251077 -0.000000 -0.000000
RightFoot -56.863681 -29.230722 27.555798
RightToeBase 11.897577 -0.000000 -0.000000
259
root 21.639394 16.110184 -16.700835 -166.791088 -2.912128 -180.899756
Spine 72.454391 6.119034 -1.923380
Head -10.548859 -0.442915 10.621423
LeftShoulder 23.098405 -39.786490 -2.689942
LeftArm 10.319264 3.501796 -56.616647
LeftForeArm -19.421627 -0.000000 15.091020
LeftHand -0.469006 -0.000000 15.248603
LeftHandThumb1 -26.253704 0.000000 33.147579
RightShoulder 10.732157 0.470902 -5.113656
RightArm 50.188040 1.824243 35.546378
RightForeArm -39.514707 -0.000000 46.585281
RightHand -10.866503 -0.000000 -16.049055
RightHandThumb1 -24.326973 -0.000000 -32.862282
LeftUpLeg -92.394077 -0.798649 -12.460421
LeftLeg 131.609593 -0.000000 -0.000000
LeftFoot -56.929667 22.014589 -19.929481
LeftToeBase 10.444469 -0.000000 -0.000000
RightUpLeg -93.696643 3.030721 12.486889
RightLeg 133.117360 -0.000000 -0.000000
RightFoot -56.875889 -29.503601 27.612431
RightToeBase 11.624622 -0.000000 -0.000000
260
root 21.640879 15.921593 -16.758177 -167.095352 -2.925492 -180.888226
Spine 72.550367 6.213933 -1.861824
Head -10.313677 -0.532596 10.679326
LeftShoulder 22.767180 -39.428556 -2.519352
LeftArm 10.071546 3.210992 -56.688315
LeftForeArm -19.624003 0.000000 15.636318
LeftHand -0.558243 -0.000000 14.188969
LeftHandThumb1 -26.253704 0.000000 33.147579
RightShoulder 10.558895 0.559660 -5.064475
RightArm 49.878022 1.313093 35.836104
RightForeArm -40.955859 0.000000 47.285383
RightHand -11.270698 -0.000000 -16.231526
RightHandThumb1 -24.326973 -0.000000 -32.862282
LeftUpLeg -92.540569 -0.762288 -12.636768
LeftLeg 132.426987 -0.000000 -0.000000
LeftFoot -56.952046 22.181644 -19.953401
LeftToeBase 10.076661 -0.000000 -0.000000
RightUpLeg -93.793921 3.219947 12.687737
RightLeg 133.873443 -0.000000 -0.000000
RightFoot -56.963589 -30.161386 27.504981
RightToeBase 11.607990 -0.000000 -0.000000
